<svg width="30" height="30" viewBox="0 0 30 30" fill="none" xmlns="http://www.w3.org/2000/svg">
<circle cx="15" cy="15" r="15" fill="#D5D5D5"/>
<path d="M9.35858 14.7369C9.35858 14.466 9.45168 14.2396 9.63788 14.0577C9.82831 13.8715 10.0822 13.7784 10.3996 13.7784C10.7127 13.7784 10.9624 13.8715 11.1486 14.0577C11.3391 14.2396 11.4343 14.466 11.4343 14.7369C11.4343 15.0035 11.3391 15.2278 11.1486 15.4097C10.9624 15.5917 10.7127 15.6827 10.3996 15.6827C10.0822 15.6827 9.82831 15.5917 9.63788 15.4097C9.45168 15.2278 9.35858 15.0035 9.35858 14.7369ZM13.2814 14.7369C13.2814 14.466 13.3745 14.2396 13.5607 14.0577C13.7512 13.8715 14.0051 13.7784 14.3224 13.7784C14.6356 13.7784 14.8853 13.8715 15.0715 14.0577C15.2619 14.2396 15.3571 14.466 15.3571 14.7369C15.3571 15.0035 15.2619 15.2278 15.0715 15.4097C14.8853 15.5917 14.6356 15.6827 14.3224 15.6827C14.0051 15.6827 13.7512 15.5917 13.5607 15.4097C13.3745 15.2278 13.2814 15.0035 13.2814 14.7369ZM17.2043 14.7369C17.2043 14.466 17.2974 14.2396 17.4836 14.0577C17.674 13.8715 17.9279 13.7784 18.2453 13.7784C18.5585 13.7784 18.8081 13.8715 18.9943 14.0577C19.1848 14.2396 19.28 14.466 19.28 14.7369C19.28 15.0035 19.1848 15.2278 18.9943 15.4097C18.8081 15.5917 18.5585 15.6827 18.2453 15.6827C17.9279 15.6827 17.674 15.5917 17.4836 15.4097C17.2974 15.2278 17.2043 15.0035 17.2043 14.7369Z" fill="black"/>
</svg>
